####
#
# OBJ File Generated by Meshlab
#
####
# Object front_axle.obj
#
# Vertices: 120
# Faces: 224
#
####
vn 0.1349312 3.1357868 -3.0555868
v 0.7015388 -0.1015000 0.0500000
vn 0.1349312 3.1357868 3.0555868
v 0.7015388 -0.1015000 -0.0500000
vn 0.5357435 3.0837896 -2.9695802
v 0.6704723 -0.0988215 0.0500000
vn 0.5357435 3.0837896 2.9695802
v 0.6704723 -0.0988215 -0.0500000
vn 0.8665467 3.0189633 -3.0985899
v 0.6403228 -0.0908650 0.0500000
vn 0.8665466 3.0189633 3.0985899
v 0.6403228 -0.0908650 -0.0500000
vn -0.8665466 3.0189633 3.0985899
v -0.6403228 -0.0908650 -0.0500000
vn -0.8665466 3.0189633 -3.0985899
v -0.6403228 -0.0908650 0.0500000
vn -0.8008829 3.0347900 -3.2275989
v -0.4844305 -0.0424674 0.0500000
vn -0.8008829 3.0347903 3.2275991
v -0.4844305 -0.0424674 -0.0500000
vn -0.5372341 3.0923686 -3.2275987
v -0.3249570 -0.0076398 0.0500000
vn -0.5372340 3.0923686 3.2275989
v -0.3249570 -0.0076398 -0.0500000
vn -0.2696136 3.1270869 -3.2275987
v -0.1630813 0.0133603 0.0500000
vn -0.2696136 3.1270869 3.2275987
v -0.1630813 0.0133603 -0.0500000
vn 0.0000000 3.1386881 0.0000000
v 0.0000000 0.0203776 0.0500000
vn 0.0000000 3.1386883 0.0000000
v 0.0000000 0.0203776 -0.0500000
vn 0.2696136 3.1270866 -3.2275987
v 0.1630813 0.0133603 0.0500000
vn 0.2696136 3.1270866 3.2275987
v 0.1630813 0.0133603 -0.0500000
vn 0.5372340 3.0923686 -3.2275989
v 0.3249570 -0.0076398 0.0500000
vn 0.5372341 3.0923688 3.2275987
v 0.3249570 -0.0076398 -0.0500000
vn 0.8008829 3.0347900 -3.2275991
v 0.4844305 -0.0424674 0.0500000
vn 0.8008829 3.0347900 3.2275989
v 0.4844305 -0.0424674 -0.0500000
vn -0.5357435 3.0837896 -2.9695802
v -0.6704723 -0.0988215 0.0500000
vn -0.5357435 3.0837896 2.9695802
v -0.6704723 -0.0988215 -0.0500000
vn -0.1349312 3.1357870 -3.0555868
v -0.7015388 -0.1015000 0.0500000
vn -0.1349312 3.1357868 3.0555868
v -0.7015388 -0.1015000 -0.0500000
vn 0.2688655 -3.1184115 3.3136048
v -0.7015388 -0.0016000 -0.0500000
vn 0.7345998 -3.0477796 3.2706017
v -0.6740169 0.0031814 -0.0500000
vn 0.2688655 -3.1184115 -3.3136048
v -0.7015388 -0.0016000 0.0500000
vn 0.7345998 -3.0477796 -3.2706017
v -0.6740169 0.0031814 0.0500000
vn -0.7345998 -3.0477796 3.2706017
v 0.6740169 0.0031814 -0.0500000
vn -0.7345998 -3.0477796 -3.2706017
v 0.6740169 0.0031814 0.0500000
vn -0.8008829 -3.0347900 3.0555868
v 0.5099214 0.0541257 -0.0500000
vn -0.8008829 -3.0347903 -3.0555863
v 0.5099214 0.0541257 0.0500000
vn -0.5372340 -3.0923686 3.0555866
v 0.3420564 0.0907859 -0.0500000
vn -0.5372340 -3.0923684 -3.0555868
v 0.3420564 0.0907859 0.0500000
vn -0.2696135 -3.1270866 3.0555863
v 0.1716627 0.1128910 -0.0500000
vn -0.2696136 -3.1270869 -3.0555868
v 0.1716627 0.1128910 0.0500000
vn 0.0000000 -3.1386881 0.0000000
v -0.0000000 0.1202776 -0.0500000
vn -0.0000000 -3.1386883 -0.0000000
v -0.0000000 0.1202776 0.0500000
vn 0.2696136 -3.1270866 3.0555868
v -0.1716627 0.1128910 -0.0500000
vn 0.2696136 -3.1270866 -3.0555863
v -0.1716627 0.1128910 0.0500000
vn 0.5372340 -3.0923684 3.0555868
v -0.3420564 0.0907859 -0.0500000
vn 0.5372339 -3.0923684 -3.0555866
v -0.3420564 0.0907859 0.0500000
vn 0.8008829 -3.0347900 3.0555863
v -0.5099214 0.0541257 -0.0500000
vn 0.8008829 -3.0347900 -3.0555868
v -0.5099214 0.0541257 0.0500000
vn -0.2688655 -3.1184115 3.3136048
v 0.7015388 -0.0016000 -0.0500000
vn -0.2688655 -3.1184115 -3.3136048
v 0.7015388 -0.0016000 0.0500000
vn -4.7123899 1.5707965 1.5707963
v -0.8125000 -0.1015000 -0.0500000
vn -4.7123899 1.5707964 -1.5707964
v -0.8125000 -0.1015000 0.0500000
vn -4.7123923 -1.5707965 1.5707964
v -0.8125000 -0.0016000 -0.0500000
vn -4.7123871 -1.5707964 -1.5707963
v -0.8125000 -0.0016000 0.0500000
vn 0.2688650 3.1184111 -3.3136046
v 0.7015388 0.0000000 -0.0515000
vn 1.5707998 1.5707964 -1.5707964
v 0.8125000 0.0000000 -0.0515000
vn 1.5707949 -1.5707963 -1.5707963
v 0.8125000 -0.1030000 -0.0515000
vn -1.5707973 -1.5707964 -1.5707964
v -0.8125000 -0.1030000 -0.0515000
vn -1.5707976 1.5707963 -1.5707963
v -0.8125000 0.0000000 -0.0515000
vn 0.1349314 -3.1357865 -3.0555866
v -0.7015388 -0.1030000 -0.0515000
vn -0.2688651 3.1184115 -3.3136048
v -0.7015388 0.0000000 -0.0515000
vn 0.5357437 -3.0837893 -2.9695807
v -0.6702155 -0.1002994 -0.0515000
vn -0.7345994 3.0477791 -3.2706022
v -0.6745565 0.0046876 -0.0515000
vn -0.1349314 -3.1357865 -3.0555868
v 0.7015388 -0.1030000 -0.0515000
vn -0.5357437 -3.0837893 -2.9695807
v 0.6702155 -0.1002994 -0.0515000
vn 0.7345995 3.0477796 -3.2706022
v 0.6745565 0.0046876 -0.0515000
vn -0.8665467 -3.0189633 -3.0985899
v 0.6398169 -0.0922771 -0.0515000
vn 0.8008831 3.0347903 -3.0555863
v 0.5103297 0.0556727 -0.0515000
vn -0.8008829 -3.0347900 -3.2275987
v 0.4840477 -0.0439177 -0.0515000
vn 0.5372340 3.0923691 -3.0555866
v 0.3423302 0.0923623 -0.0515000
vn -0.5372341 -3.0923688 -3.2275987
v 0.3247002 -0.0091177 -0.0515000
vn 0.2696136 3.1270869 -3.0555868
v 0.1718001 0.1144851 -0.0515000
vn -0.2696135 -3.1270871 -3.2275987
v 0.1629524 0.0118658 -0.0515000
vn 0.0000000 0.0000000 -3.0555863
v 0.0000000 0.1218776 -0.0515000
vn 0.0000000 0.0000000 -3.2275987
v 0.0000000 0.0188776 -0.0515000
vn -0.2696136 3.1270869 -3.0555866
v -0.1718001 0.1144851 -0.0515000
vn 0.2696136 -3.1270869 -3.2275987
v -0.1629524 0.0118658 -0.0515000
vn -0.5372341 3.0923688 -3.0555863
v -0.3423302 0.0923623 -0.0515000
vn 0.5372340 -3.0923688 -3.2275987
v -0.3247002 -0.0091177 -0.0515000
vn -0.8008830 3.0347905 -3.0555868
v -0.5103297 0.0556727 -0.0515000
vn 0.8008830 -3.0347903 -3.2275987
v -0.4840477 -0.0439177 -0.0515000
vn 0.8665466 -3.0189633 -3.0985899
v -0.6398169 -0.0922771 -0.0515000
vn 4.7123899 1.5707964 1.5707964
v 0.8125000 -0.1015000 -0.0500000
vn 4.7123871 -1.5707964 1.5707963
v 0.8125000 -0.0016000 -0.0500000
vn 0.0000000 0.0000000 3.0555863
v -0.0000000 0.1202776 -0.0500000
vn 0.0000000 0.0000000 3.2275984
v 0.0000000 0.0203776 -0.0500000
vn 4.7123899 1.5707965 -1.5707963
v 0.8125000 -0.1015000 0.0500000
vn 4.7123923 -1.5707965 -1.5707964
v 0.8125000 -0.0016000 0.0500000
vn 0.0000000 0.0000000 -3.0555863
v -0.0000000 0.1202776 0.0500000
vn 0.0000000 0.0000000 -3.2275984
v 0.0000000 0.0203776 0.0500000
vn 1.5707976 1.5707963 1.5707963
v 0.8125000 -0.0000000 0.0515000
vn 0.2688651 3.1184115 3.3136048
v 0.7015388 0.0000000 0.0515000
vn 0.7345994 3.0477793 3.2706022
v 0.6745565 0.0046876 0.0515000
vn -0.7345995 3.0477796 3.2706022
v -0.6745565 0.0046876 0.0515000
vn -0.8008831 3.0347900 3.0555863
v -0.5103297 0.0556727 0.0515000
vn -0.5372341 3.0923688 3.0555866
v -0.3423302 0.0923623 0.0515000
vn -0.2696136 3.1270871 3.0555868
v -0.1718001 0.1144851 0.0515000
vn 0.0000000 3.1386881 0.0000000
v 0.0000000 0.1218776 0.0515000
vn -0.0000000 3.1386881 0.0000000
v 0.0000000 0.1218776 -0.0515000
vn 0.2696136 3.1270871 3.0555866
v 0.1718001 0.1144851 0.0515000
vn 0.5372341 3.0923686 3.0555863
v 0.3423302 0.0923623 0.0515000
vn 0.8008831 3.0347903 3.0555868
v 0.5103297 0.0556727 0.0515000
vn -0.2688650 3.1184111 3.3136046
v -0.7015388 0.0000000 0.0515000
vn -1.5707998 1.5707964 1.5707964
v -0.8125000 0.0000000 0.0515000
vn -1.5707949 -1.5707963 1.5707963
v -0.8125000 -0.1030000 0.0515000
vn 0.1349314 -3.1357865 3.0555868
v -0.7015388 -0.1030000 0.0515000
vn 0.5357437 -3.0837893 2.9695807
v -0.6702155 -0.1002994 0.0515000
vn 0.8665467 -3.0189633 3.0985899
v -0.6398169 -0.0922771 0.0515000
vn -0.8665466 -3.0189633 3.0985899
v 0.6398169 -0.0922771 0.0515000
vn -0.8008830 -3.0347903 3.2275987
v 0.4840477 -0.0439177 0.0515000
vn -0.5372340 -3.0923686 3.2275987
v 0.3247002 -0.0091177 0.0515000
vn -0.2696136 -3.1270869 3.2275987
v 0.1629524 0.0118658 0.0515000
vn 0.0000000 -3.1386881 0.0000000
v 0.0000000 0.0188776 -0.0515000
vn -0.0000000 -3.1386881 -0.0000000
v 0.0000000 0.0188776 0.0515000
vn 0.2696136 -3.1270869 3.2275987
v -0.1629524 0.0118658 0.0515000
vn 0.5372341 -3.0923688 3.2275987
v -0.3247002 -0.0091177 0.0515000
vn 0.8008829 -3.0347903 3.2275987
v -0.4840477 -0.0439177 0.0515000
vn -0.5357437 -3.0837893 2.9695807
v 0.6702155 -0.1002994 0.0515000
vn -0.1349314 -3.1357868 3.0555866
v 0.7015388 -0.1030000 0.0515000
vn 1.5707973 -1.5707964 1.5707964
v 0.8125000 -0.1030000 0.0515000
vn 0.0000000 0.0000000 3.0555863
v 0.0000000 0.1218776 0.0515000
vn 0.0000000 0.0000000 3.2275987
v -0.0000000 0.0188776 0.0515000
# 120 vertices, 0 vertices normals

f 1//1 2//2 3//3
f 3//3 2//2 4//4
f 3//3 4//4 5//5
f 5//5 4//4 6//6
f 7//7 8//8 9//9
f 7//7 9//9 10//10
f 10//10 9//9 11//11
f 10//10 11//11 12//12
f 12//12 11//11 13//13
f 12//12 13//13 14//14
f 14//14 13//13 15//15
f 14//14 15//15 16//16
f 16//16 15//15 17//17
f 16//16 17//17 18//18
f 18//18 17//17 19//19
f 18//18 19//19 20//20
f 20//20 19//19 21//21
f 20//20 21//21 22//22
f 22//22 21//21 5//5
f 22//22 5//5 6//6
f 8//8 7//7 23//23
f 23//23 7//7 24//24
f 23//23 24//24 25//25
f 25//25 24//24 26//26
f 27//27 28//28 29//29
f 29//29 28//28 30//30
f 31//31 32//32 33//33
f 33//33 32//32 34//34
f 33//33 34//34 35//35
f 35//35 34//34 36//36
f 35//35 36//36 37//37
f 37//37 36//36 38//38
f 37//37 38//38 39//39
f 39//39 38//38 40//40
f 39//39 40//40 41//41
f 41//41 40//40 42//42
f 41//41 42//42 43//43
f 43//43 42//42 44//44
f 43//43 44//44 45//45
f 45//45 44//44 46//46
f 45//45 46//46 28//28
f 28//28 46//46 30//30
f 31//31 47//47 32//32
f 32//32 47//47 48//48
f 26//26 49//49 25//25
f 25//25 49//49 50//50
f 27//27 29//29 51//51
f 51//51 29//29 52//52
f 53//53 54//54 55//55
f 56//56 57//57 58//58
f 58//58 57//57 59//59
f 58//58 59//59 60//60
f 60//60 59//59 61//61
f 55//55 62//62 53//53
f 53//53 62//62 63//63
f 53//53 63//63 64//64
f 64//64 63//63 65//65
f 64//64 65//65 66//66
f 66//66 65//65 67//67
f 66//66 67//67 68//68
f 68//68 67//67 69//69
f 68//68 69//69 70//70
f 70//70 69//69 71//71
f 70//70 71//71 72//72
f 72//72 71//71 73//73
f 72//72 73//73 74//74
f 74//74 73//73 75//75
f 74//74 75//75 76//76
f 76//76 75//75 77//77
f 76//76 77//77 78//78
f 78//78 77//77 79//79
f 78//78 79//79 61//61
f 61//61 79//79 80//80
f 61//61 80//80 60//60
f 27//27 51//51 49//49
f 81//81 82//82 2//2
f 2//2 82//82 47//47
f 2//2 47//47 4//4
f 4//4 47//47 31//31
f 49//49 26//26 27//27
f 27//27 26//26 24//24
f 27//27 24//24 28//28
f 28//28 24//24 7//7
f 28//28 7//7 45//45
f 45//45 7//7 10//10
f 45//45 10//10 43//43
f 43//43 10//10 12//12
f 43//43 12//12 41//41
f 41//41 12//12 14//14
f 41//41 14//14 83//83
f 83//83 14//14 84//84
f 83//83 84//84 37//37
f 37//37 84//84 18//18
f 37//37 18//18 35//35
f 35//35 18//18 20//20
f 35//35 20//20 33//33
f 33//33 20//20 22//22
f 33//33 22//22 31//31
f 31//31 22//22 6//6
f 31//31 6//6 4//4
f 81//81 2//2 85//85
f 85//85 2//2 1//1
f 48//48 86//86 85//85
f 50//50 52//52 25//25
f 25//25 52//52 29//29
f 25//25 29//29 23//23
f 23//23 29//29 30//30
f 85//85 1//1 48//48
f 48//48 1//1 3//3
f 48//48 3//3 32//32
f 32//32 3//3 5//5
f 32//32 5//5 34//34
f 34//34 5//5 21//21
f 34//34 21//21 36//36
f 36//36 21//21 19//19
f 36//36 19//19 38//38
f 38//38 19//19 17//17
f 38//38 17//17 87//87
f 87//87 17//17 88//88
f 87//87 88//88 42//42
f 42//42 88//88 13//13
f 42//42 13//13 44//44
f 44//44 13//13 11//11
f 44//44 11//11 46//46
f 46//46 11//11 9//9
f 46//46 9//9 30//30
f 30//30 9//9 8//8
f 30//30 8//8 23//23
f 82//82 86//86 47//47
f 47//47 86//86 48//48
f 54//54 53//53 89//89
f 89//89 53//53 90//90
f 64//64 91//91 53//53
f 53//53 91//91 90//90
f 61//61 92//92 93//93
f 61//61 93//93 78//78
f 78//78 93//93 94//94
f 78//78 94//94 76//76
f 76//76 94//94 95//95
f 76//76 95//95 74//74
f 74//74 95//95 96//96
f 74//74 96//96 97//97
f 97//97 96//96 98//98
f 97//97 98//98 70//70
f 70//70 98//98 99//99
f 70//70 99//99 68//68
f 68//68 99//99 100//100
f 68//68 100//100 66//66
f 66//66 100//100 91//91
f 66//66 91//91 64//64
f 59//59 101//101 61//61
f 61//61 101//101 92//92
f 59//59 57//57 101//101
f 101//101 57//57 102//102
f 49//49 56//56 50//50
f 50//50 56//56 103//103
f 50//50 103//103 52//52
f 52//52 103//103 102//102
f 52//52 102//102 51//51
f 51//51 102//102 57//57
f 51//51 57//57 49//49
f 49//49 57//57 56//56
f 104//104 103//103 58//58
f 58//58 103//103 56//56
f 104//104 58//58 60//60
f 104//104 60//60 105//105
f 105//105 60//60 80//80
f 105//105 80//80 106//106
f 65//65 107//107 67//67
f 67//67 107//107 108//108
f 67//67 108//108 69//69
f 69//69 108//108 109//109
f 69//69 109//109 71//71
f 71//71 109//109 110//110
f 71//71 110//110 111//111
f 111//111 110//110 112//112
f 111//111 112//112 75//75
f 75//75 112//112 113//113
f 75//75 113//113 77//77
f 77//77 113//113 114//114
f 77//77 114//114 79//79
f 79//79 114//114 115//115
f 79//79 115//115 80//80
f 80//80 115//115 106//106
f 107//107 65//65 63//63
f 107//107 63//63 116//116
f 116//116 63//63 62//62
f 116//116 62//62 117//117
f 118//118 117//117 55//55
f 55//55 117//117 62//62
f 85//85 118//118 81//81
f 81//81 118//118 55//55
f 81//81 55//55 82//82
f 82//82 55//55 54//54
f 82//82 54//54 86//86
f 86//86 54//54 89//89
f 86//86 89//89 85//85
f 85//85 89//89 118//118
f 101//101 102//102 103//103
f 118//118 89//89 117//117
f 117//117 89//89 90//90
f 117//117 90//90 116//116
f 116//116 90//90 91//91
f 103//103 104//104 101//101
f 101//101 104//104 105//105
f 101//101 105//105 92//92
f 92//92 105//105 106//106
f 92//92 106//106 93//93
f 93//93 106//106 115//115
f 93//93 115//115 94//94
f 94//94 115//115 114//114
f 94//94 114//114 95//95
f 95//95 114//114 113//113
f 95//95 113//113 119//119
f 119//119 113//113 120//120
f 119//119 120//120 98//98
f 98//98 120//120 110//110
f 98//98 110//110 99//99
f 99//99 110//110 109//109
f 99//99 109//109 100//100
f 100//100 109//109 108//108
f 100//100 108//108 91//91
f 91//91 108//108 107//107
f 91//91 107//107 116//116
# 224 faces, 0 coords texture

# End of File
